<svg width="300" height="210" viewBox="0 0 300 210" xmlns="http://www.w3.org/2000/svg">
<rect x="1" y="1" width="298" height="208" rx="12" fill="#0B0F1A" stroke="#3B82F6" stroke-opacity="0.35"/>
<text x="20" y="30" font-family="JetBrains Mono, monospace" font-size="15" font-weight="700" fill="#3B82F6">Most Used Languages</text>
<rect x="20.0" y="45" width="110.5" height="10" fill="#3178c6"/>
<rect x="130.5" y="45" width="73.6" height="10" fill="#f1e05a"/>
<rect x="204.1" y="45" width="40.8" height="10" fill="#3572A5"/>
<rect x="244.9" y="45" width="21.3" height="10" fill="#e34c26"/>
<rect x="266.2" y="45" width="13.8" height="10" fill="#563d7c"/>
<circle cx="28" cy="76" r="5" fill="#3178c6"/>
<text x="42" y="80" font-family="JetBrains Mono, monospace" font-size="12" fill="#c7d0dc">TypeScript</text>
<text x="280" y="80" font-family="JetBrains Mono, monospace" font-size="12" fill="#8b95a5" text-anchor="end">42.5%</text>
<circle cx="28" cy="100" r="5" fill="#f1e05a"/>
<text x="42" y="104" font-family="JetBrains Mono, monospace" font-size="12" fill="#c7d0dc">JavaScript</text>
<text x="280" y="104" font-family="JetBrains Mono, monospace" font-size="12" fill="#8b95a5" text-anchor="end">28.3%</text>
<circle cx="28" cy="124" r="5" fill="#3572A5"/>
<text x="42" y="128" font-family="JetBrains Mono, monospace" font-size="12" fill="#c7d0dc">Python</text>
<text x="280" y="128" font-family="JetBrains Mono, monospace" font-size="12" fill="#8b95a5" text-anchor="end">15.7%</text>
<circle cx="28" cy="148" r="5" fill="#e34c26"/>
<text x="42" y="152" font-family="JetBrains Mono, monospace" font-size="12" fill="#c7d0dc">HTML</text>
<text x="280" y="152" font-family="JetBrains Mono, monospace" font-size="12" fill="#8b95a5" text-anchor="end">8.2%</text>
<circle cx="28" cy="172" r="5" fill="#563d7c"/>
<text x="42" y="176" font-family="JetBrains Mono, monospace" font-size="12" fill="#c7d0dc">CSS</text>
<text x="280" y="176" font-family="JetBrains Mono, monospace" font-size="12" fill="#8b95a5" text-anchor="end">5.3%</text>
</svg>